<svg width="16" height="16" viewBox="0 0 16 16" fill="none"
    xmlns="http://www.w3.org/2000/svg">
    <g id="check circle">
        <path id="Fill 1" fill-rule="evenodd" clip-rule="evenodd" d="M8 0C3.581 0 0 3.582 0 8C0 12.418 3.581 16 8 16C12.418 16 16 12.418 16 8C16 3.582 12.418 0 8 0Z" fill="#0A9F7D"/>
        <path id="Path" fill-rule="evenodd" clip-rule="evenodd" d="M12.3891 6.03903L8.32308 11.021C8.07908 11.355 7.65508 11.579 7.18908 11.593C7.17308 11.594 7.15808 11.594 7.14308 11.594C6.69508 11.594 6.27708 11.397 5.99008 11.051L4.13008 8.81103C3.77808 8.38703 3.83608 7.75603 4.26108 7.40303C4.68708 7.04903 5.31708 7.11003 5.66908 7.53403L7.14108 9.30803L10.8401 4.77403C11.1871 4.34603 11.8161 4.28103 12.2471 4.63203C12.6751 4.98103 12.7391 5.61103 12.3891 6.03903Z" fill="white"/>
    </g>
</svg>
